<svg xmlns="http://www.w3.org/2000/svg" xml:space="preserve" version="1.1" style="shape-rendering:geometricPrecision; text-rendering:geometricPrecision; image-rendering:optimizeQuality; fill-rule:evenodd; clip-rule:evenodd" viewBox="0 0 208.52 511.88" xmlns:xlink="http://www.w3.org/1999/xlink"><defs></defs><g id="Layer_x0020_1"><metadata id="CorelCorpID_0Corel-Layer"></metadata><path class="fil-leaf-1" d="M121.86 141.25c16.73,2.91 65.77,9.16 77.74,-14.94 14.49,-29.19 12.6,-56.91 -15.12,-69.09 -11.3,-4.96 -22.28,-7.7 -32.28,-9.66 -24.58,24.72 -41.22,75.51 -43.83,83.82 4.31,3.56 8.81,6.86 13.49,9.87zm-17.26 41.05c2.87,7.92 8.26,29.59 7.63,79.7 -0.16,12.74 -0.48,25.41 -0.81,38.43 -1.4,55.59 -2.96,117.52 7.12,210.69l-7.09 0.75c-10.12,-93.56 -8.56,-155.77 -7.15,-211.61 0.33,-13.06 0.65,-25.77 0.81,-38.35 0.53,-42.42 -3.06,-63.29 -5.69,-72.77 -7.55,8.48 -18.48,15.07 -34.33,16.54 -26.77,2.47 -43.19,-16.99 -52.84,-36.58 16.49,-8.49 65.65,-32.22 98.27,-31.47 1.86,1.42 3.76,2.8 5.69,4.13 -0.15,5.56 -1.43,24.61 -11.62,40.53zm-41.18 -148.65c-0.32,0.84 1.68,9.87 -6.19,10.71 -7.87,0.84 -3.26,-5.14 -6.82,-7.98 -3.57,-2.84 -9.97,-14.59 1.99,-15.96 11.97,-1.37 11.02,13.23 11.02,13.23zm124.63 55.54c0,0 -3.89,14.8 -10.18,18.69 -6.3,3.88 -22.78,7.24 -28.87,0.11 -6.09,-7.14 -1.57,-31.71 17.64,-30.45 19.21,1.26 22.68,8.4 21.42,11.65zm-101.53 67.51c0,0 5.88,5.56 5.46,9.87 -0.42,4.3 -5.78,19.21 -14.07,20.05 -8.29,0.84 -24.15,-6.82 -21.84,-17.53 2.31,-10.71 10.5,-11.34 12.6,-10.6 2.1,0.74 3.36,2.1 17.85,-1.78zm61.49 -109.94c-12.74,-2.33 -23.63,-3.69 -31.15,-7.4 0,0 -2.41,15.22 -4.51,19.74 -2.1,4.51 -6.3,17.32 -14.8,21.1 -8.5,3.78 -9.87,-28.14 4.62,-45.15 0,0 -10.13,-4.4 -22.34,-9.92 -11.47,31.21 -7.3,64.58 -7.28,64.68l-0.48 0.06c9.73,14.77 20.76,28.04 33.37,39.01 3.68,-11.43 19.48,-57.46 42.58,-82.12zm-71.44 -23.1c-16.59,-7.55 -35.59,-16.58 -38.25,-19.47 -1.97,-2.14 -4.87,-3.72 -7.63,-4.2 9.11,27.4 20.23,54.59 34.36,78.62 1.13,1.92 2.28,3.82 3.45,5.7 -0.66,-11.21 -0.85,-36.56 8.07,-60.65zm-49.59 -23.57c-2.34,0.66 -4.05,2.62 -4.09,6.41 -0.1,9.45 -9.03,35.38 -9.03,35.38 0,0 33.07,14.91 22.99,23.1 -10.08,8.19 -25.41,-8.5 -26.35,-9.34 0,0 -5.94,16.24 -8.44,35.85 11.53,-1.14 38.81,-2.11 72.53,8.35 -4.45,-6.19 -8.65,-12.68 -12.61,-19.42 -14.44,-24.56 -25.77,-52.36 -35.01,-80.32zm-25.33 95.01c-0.61,6.01 -0.86,12.26 -0.49,18.39 0,0 56.17,-9.87 57.33,8.71 1.15,18.58 -58.48,9.45 -58.48,9.45 0,0 2.71,16.68 10.73,34.23 16.07,-8.25 62.14,-30.45 95.29,-31.76l-1.75 -1.5 0.01 -0.03c-9.54,-8.13 -18.2,-17.54 -26.08,-27.89l-0.01 0.04c-36.16,-12.16 -65.36,-10.82 -76.53,-9.63z"></path></g></svg>