<?xml version="1.0" standalone="no"?>
<!DOCTYPE svg PUBLIC "-//W3C//DTD SVG 20010904//EN"
 "http://www.w3.org/TR/2001/REC-SVG-20010904/DTD/svg10.dtd">
<svg version="1.0" xmlns="http://www.w3.org/2000/svg"
 width="256.000000pt" height="256.000000pt" viewBox="0 0 256.000000 256.000000"
 preserveAspectRatio="xMidYMid meet">

<g transform="translate(0.000000,256.000000) scale(0.100000,-0.100000)"
fill="#ffffff" stroke="none">
<path d="M1209 2511 c-13 -10 -42 -55 -64 -100 -43 -90 -46 -91 -165 -106 -30
-4 -67 -14 -81 -22 -51 -30 -73 -97 -48 -146 7 -12 40 -52 75 -89 35 -36 64
-70 64 -75 0 -4 -7 -45 -15 -91 -8 -45 -12 -90 -9 -100 20 -62 57 -92 113 -92
17 0 69 19 116 42 l85 42 85 -42 c92 -45 136 -52 175 -25 54 37 62 72 43 185
l-15 90 65 67 c35 36 70 76 76 88 25 49 3 116 -48 146 -14 8 -51 18 -81 22
-119 15 -122 16 -165 106 -48 99 -71 119 -135 119 -31 0 -55 -6 -71 -19z m147
-124 c57 -109 64 -115 176 -135 153 -27 162 -50 59 -157 -82 -84 -89 -106 -67
-219 14 -71 14 -82 1 -103 -22 -33 -54 -29 -144 17 -43 22 -88 40 -101 40 -13
0 -58 -18 -101 -40 -90 -46 -122 -50 -144 -17 -13 21 -13 32 1 103 22 113 15
135 -67 219 -102 106 -92 135 53 155 108 15 127 29 175 124 46 93 51 98 87 94
28 -3 36 -12 72 -81z"/>
<path d="M1000 1548 c-49 -14 -97 -53 -120 -98 -18 -35 -20 -59 -20 -230 l0
-190 -315 0 c-262 0 -322 -3 -353 -15 -85 -36 -122 -100 -122 -210 0 -58 3
-77 15 -81 30 -12 45 15 45 84 0 47 5 73 20 97 39 63 53 65 399 65 l311 0 -2
-442 -3 -443 -310 0 c-345 0 -355 2 -395 68 -18 28 -20 51 -20 204 0 159 -1
173 -19 182 -37 20 -42 -6 -39 -202 l3 -185 31 -38 c44 -55 72 -73 135 -84 90
-17 2085 -9 2124 8 41 18 83 59 106 105 19 36 19 59 17 530 l-3 493 -24 36
c-13 19 -40 46 -59 59 -35 24 -37 24 -366 29 l-331 5 -5 65 c-3 36 -13 79 -23
97 -22 41 -71 78 -122 92 -50 14 -506 13 -555 -1z m553 -62 c18 -7 45 -28 60
-45 l27 -33 0 -664 0 -664 -360 0 -360 0 0 664 0 664 27 33 c47 55 64 58 331
59 183 0 251 -3 275 -14z m814 -276 c64 -39 63 -30 63 -552 0 -451 -1 -474
-20 -505 -40 -66 -50 -68 -395 -68 l-310 0 -3 573 -2 572 317 0 c298 0 320 -1
350 -20z"/>
<path d="M77 674 c-14 -14 -8 -84 8 -90 26 -10 46 16 43 55 -2 27 -8 37 -23
39 -12 2 -24 0 -28 -4z"/>
</g>
</svg>
